<svg xmlns="http://www.w3.org/2000/svg" version="1.1" xmlns:xlink="http://www.w3.org/1999/xlink" xmlns:svgjs="http://svgjs.dev/svgjs" width="1000" height="1000" viewBox="0 0 1000 1000"><rect width="1000" height="1000" fill="#ffffff"></rect><g transform="matrix(0.7,0,0,0.7,149.57575757575756,454.9245910304044)"><svg viewBox="0 0 396 51" data-background-color="#000000" preserveAspectRatio="xMidYMid meet" height="128" width="1000" xmlns="http://www.w3.org/2000/svg" xmlns:xlink="http://www.w3.org/1999/xlink"><g id="tight-bounds" transform="matrix(1,0,0,1,0.2400000000000091,0.1567618018903545)"><svg viewBox="0 0 395.52 50.686476396219305" height="50.686476396219305" width="395.52"><g><svg viewBox="0 0 457.0497079123844 58.571600000000004" height="50.686476396219305" width="395.52"><g><svg viewBox="0 0 457.0497079123844 58.571600000000004" height="58.571600000000004" width="457.0497079123844"><g id="textblocktransform"><svg viewBox="0 0 457.0497079123844 58.571600000000004" height="58.571600000000004" width="457.0497079123844" id="textblock"><g><svg viewBox="0 0 457.0497079123844 58.571600000000004" height="58.571600000000004" width="457.0497079123844"><g><svg><g></g><g></g></svg></g><g><svg><g><svg></svg></g><g></g></svg></g><g id="text-0"><svg viewBox="0 0 457.0497079123844 58.571600000000004" height="58.571600000000004" width="457.0497079123844"><g transform="matrix(1,0,0,1,0,6.274189585342338)"><svg width="395.52" viewBox="2.85 -35.45 311.08 36.2" height="46.02322082931533" data-palette-color="#ffffff"><path d="M19.55 0.75L19.55 0.75Q15.65 0.75 12.55-0.45 9.45-1.65 7.3-3.98 5.15-6.3 4-9.65 2.85-13 2.85-17.35L2.85-17.35Q2.85-21.7 4.17-25.05 5.5-28.4 7.8-30.73 10.1-33.05 13.2-34.25 16.3-35.45 19.85-35.45L19.85-35.45Q22-35.45 23.75-35.13 25.5-34.8 26.8-34.4 28.1-34 28.95-33.55 29.8-33.1 30.15-32.9L30.15-32.9 28.3-27.75Q27.1-28.5 24.88-29.18 22.65-29.85 20.05-29.85L20.05-29.85Q17.8-29.85 15.85-29.08 13.9-28.3 12.48-26.75 11.05-25.2 10.25-22.85 9.45-20.5 9.45-17.4L9.45-17.4Q9.45-14.65 10.08-12.35 10.7-10.05 12-8.38 13.3-6.7 15.3-5.78 17.3-4.85 20.1-4.85L20.1-4.85Q23.45-4.85 25.55-5.53 27.65-6.2 28.8-6.8L28.8-6.8 30.5-1.65Q29.9-1.25 28.88-0.85 27.85-0.45 26.45-0.08 25.05 0.3 23.3 0.53 21.55 0.75 19.55 0.75ZM66.8 0L60 0Q59.3-2.05 58.55-4.05 57.8-6.05 57.1-8.15L57.1-8.15 42.5-8.15Q41.8-6.05 41.07-4.03 40.35-2 39.65 0L39.65 0 33.1 0Q35.05-5.55 36.8-10.25 38.55-14.95 40.22-19.15 41.9-23.35 43.55-27.15 45.2-30.95 46.95-34.65L46.95-34.65 52.9-34.65Q54.65-30.95 56.3-27.15 57.95-23.35 59.62-19.15 61.3-14.95 63.07-10.25 64.85-5.55 66.8 0L66.8 0ZM49.8-27.95L49.8-27.95Q48.65-25.3 47.17-21.5 45.7-17.7 44.1-13.25L44.1-13.25 55.5-13.25Q53.9-17.7 52.4-21.55 50.9-25.4 49.8-27.95ZM81-35L81-35Q88.55-35 92.57-32.25 96.6-29.5 96.6-23.65L96.6-23.65Q96.6-20.6 95.52-18.43 94.45-16.25 92.4-14.88 90.35-13.5 87.4-12.85 84.45-12.2 80.65-12.2L80.65-12.2 77.5-12.2 77.5 0 71.2 0 71.2-34.15Q73.4-34.65 76.07-34.83 78.75-35 81-35ZM81.45-29.55L81.45-29.55Q79.05-29.55 77.5-29.4L77.5-29.4 77.5-17.6 80.55-17.6Q85.1-17.6 87.55-18.88 90-20.15 90-23.7L90-23.7Q90-25.4 89.35-26.55 88.7-27.7 87.55-28.35 86.4-29 84.82-29.28 83.25-29.55 81.45-29.55ZM113.99-19.3L113.99-19.3Q116.24-23.05 118.39-26.9 120.54-30.75 122.29-34.65L122.29-34.65 129.29-34.65Q126.49-29.35 123.47-24.13 120.44-18.9 116.99-13.6L116.99-13.6 116.99 0 110.69 0 110.69-13.5Q107.24-18.85 104.19-24.1 101.14-29.35 98.34-34.65L98.34-34.65 105.74-34.65Q107.49-30.75 109.59-26.9 111.69-23.05 113.99-19.3ZM131.44-34.65L159.09-34.65 159.09-29.2 148.44-29.2 148.44 0 142.09 0 142.09-29.2 131.44-29.2 131.44-34.65ZM173.44-35L173.44-35Q180.94-35 184.91-32.25 188.89-29.5 188.89-23.85L188.89-23.85Q188.89-16.8 181.94-14.3L181.94-14.3Q182.89-13.15 184.09-11.5 185.29-9.85 186.54-7.93 187.79-6 188.94-3.98 190.09-1.95 190.99 0L190.99 0 183.94 0Q182.99-1.8 181.89-3.63 180.79-5.45 179.66-7.18 178.54-8.9 177.44-10.43 176.34-11.95 175.39-13.15L175.39-13.15Q174.69-13.1 174.19-13.1 173.69-13.1 173.24-13.1L173.24-13.1 170.19-13.1 170.19 0 163.89 0 163.89-34.15Q166.19-34.65 168.79-34.83 171.39-35 173.44-35ZM173.89-29.55L173.89-29.55Q171.89-29.55 170.19-29.4L170.19-29.4 170.19-18.2 172.94-18.2Q175.24-18.2 176.99-18.45 178.74-18.7 179.91-19.35 181.09-20 181.69-21.1 182.29-22.2 182.29-23.9L182.29-23.9Q182.29-25.5 181.69-26.6 181.09-27.7 179.96-28.35 178.84-29 177.29-29.28 175.74-29.55 173.89-29.55ZM226.94 0L220.14 0Q219.44-2.05 218.69-4.05 217.94-6.05 217.24-8.15L217.24-8.15 202.64-8.15Q201.94-6.05 201.21-4.03 200.49-2 199.79 0L199.79 0 193.24 0Q195.19-5.55 196.94-10.25 198.69-14.95 200.36-19.15 202.04-23.35 203.69-27.15 205.34-30.95 207.09-34.65L207.09-34.65 213.04-34.65Q214.79-30.95 216.44-27.15 218.09-23.35 219.76-19.15 221.44-14.95 223.21-10.25 224.99-5.55 226.94 0L226.94 0ZM209.94-27.95L209.94-27.95Q208.79-25.3 207.31-21.5 205.84-17.7 204.24-13.25L204.24-13.25 215.64-13.25Q214.04-17.7 212.54-21.55 211.04-25.4 209.94-27.95ZM244.53 0L238.48 0Q234.73-8.1 231.26-16.95 227.78-25.8 224.78-34.65L224.78-34.65 231.73-34.65Q232.93-31.15 234.18-27.5 235.43-23.85 236.68-20.33 237.93-16.8 239.18-13.5 240.43-10.2 241.63-7.45L241.63-7.45Q242.78-10.2 244.03-13.48 245.28-16.75 246.56-20.3 247.83-23.85 249.08-27.5 250.33-31.15 251.48-34.65L251.48-34.65 258.23-34.65Q255.18-25.8 251.73-16.95 248.28-8.1 244.53 0L244.53 0ZM286.18 0L262.73 0 262.73-34.65 284.98-34.65 284.98-29.3 269.03-29.3 269.03-20.75 283.23-20.75 283.23-15.5 269.03-15.5 269.03-5.35 286.18-5.35 286.18 0ZM298.33-5.45L313.93-5.45 313.93 0 292.03 0 292.03-34.65 298.33-34.65 298.33-5.45Z" opacity="1" transform="matrix(1,0,0,1,0,0)" fill="#000000" class="undefined-text-0" data-fill-palette-color="primary"></path></svg></g><g><svg xmlns="http://www.w3.org/2000/svg" xmlns:xlink="http://www.w3.org/1999/xlink" version="1.1" x="409.34839999999997" y="0" viewBox="12.388274884063863 3.5036542873085694 75.44180437242075 92.63366943933346" style="enable-background:new 0 0 100 100;" xml:space="preserve" height="58.571600000000004" width="47.701307912384415" class="icon-g$-0" data-fill-palette-color="accent" id="g$-0"><path d="M43.44 64.85c0 0-2.5 2.97-3.13-1.41 0 0-0.21-1.46 1.57-0.73C43.65 63.45 43.44 64.85 43.44 64.85z" fill="#000000" data-fill-palette-color="accent"></path><path d="M55.3 64.85c0 0 2.5 2.97 3.13-1.41 0 0 0.21-1.46-1.57-0.73C55.09 63.45 55.3 64.85 55.3 64.85z" fill="#000000" data-fill-palette-color="accent"></path><path d="M47.68 29.84c0.16 0.01 0.33 0.02 0.49 0.02h0.12c0.1 0 0.19 0 0.29-0.01C48.28 29.85 47.98 29.85 47.68 29.84z" fill="#000000" data-fill-palette-color="accent"></path><path d="M76.17 41.68c-0.15-0.24-0.3-0.48-0.46-0.72-0.74-1.13-1.49-2.23-2.27-3.3-0.41-0.56-0.79-1.13-1.14-1.7-0.75-1.23-1.36-2.47-1.87-3.7-0.02 0.02-0.04 0.04-0.06 0.06-1.05 1.14-2.45 2.33-4.25 3.54-10.21 6.89-29.63 4.59-37.51-2.24-5.37 11.97-16.38 31.19-16.22 42.97 0.01 0.92 0.26 1.77 0.73 2.55 0.01 0.02 0.02 0.03 0.03 0.05 0.06 0.07 0.11 0.14 0.16 0.21 0.01 0.02 0.02 0.03 0.03 0.05 2.53 3.27 8.93 5.34 16.98 6.43-0.64-5.69 3-9.33 3-9.33 1.55-2.43 9.63 2.8 13.61 5.6 0 0 0.01-0.01 0.04-0.04 0.3-0.24 2.21-1.66 4.41 0.05 3.97-2.8 12.05-8.04 13.61-5.61 0 0 3.3 3.3 3.07 8.55 11.31-1.81 19.8-4.93 19.77-8.86C87.74 65.96 83.05 52.62 76.17 41.68zM33.05 40.77c0 0.11-0.04 0.17-0.13 0.15 0 0-1.56-0.12-1.72-1.39-0.02-0.14-0.03-0.3 0-0.48 0.01-0.09 0.02-0.19 0.05-0.29 0.38-1.62 1.68 0.9 1.8 1.84C33.07 40.67 33.07 40.73 33.05 40.77zM59.5 65.18c-0.36 2.26-1.61 4.88-4.35 6.62-2.09 1.31-3.17 3.04-3.89 4.54-0.87 0.99-1.34 0.58-1.59-0.02-0.23-0.51-0.28-1.16-0.28-1.16 0.63-4.54-0.19-9.81-0.19-9.81s-0.03 0.22-0.09 0.62c0 0.01 0 0.01 0 0.02-0.01 0.12-0.03 0.26-0.05 0.41-0.02 0.16-0.04 0.34-0.06 0.52-0.03 0.34-0.07 0.73-0.1 1.16-0.03 0.33-0.06 0.68-0.07 1.04-0.01 0.17-0.02 0.34-0.03 0.51-0.08 1.69-0.07 3.65 0.18 5.49 0 0 0 0 0 0.01v0.03c0 0-0.59 2.98-1.68 1.27-0.02-0.05-0.04-0.09-0.07-0.14-0.23-0.49-0.5-1.01-0.85-1.53-0.04-0.07-0.08-0.13-0.12-0.19-0.66-0.98-1.57-1.96-2.87-2.77-1.51-0.96-2.57-2.19-3.28-3.48-1.57-2.84-1.42-5.98-0.64-7.17 1.01-1.5 8.04-0.38 9.79-0.07 1.75-0.31 8.8-1.43 9.79 0.07 0.22 0.33 0.39 0.82 0.49 1.41C59.66 63.31 59.66 64.21 59.5 65.18zM68.05 39.59c-0.04 0.31-0.18 0.55-0.36 0.73-0.03 0.03-0.06 0.06-0.09 0.08-0.17 0.16-0.37 0.27-0.56 0.34-0.01 0.01-0.03 0.01-0.04 0.02-0.23 0.09-0.45 0.13-0.57 0.15-0.06 0.01-0.1 0.01-0.1 0.01-0.09 0.02-0.13-0.04-0.13-0.15-0.01-0.04-0.01-0.1 0-0.18 0.01-0.04 0.02-0.09 0.03-0.14 0.23-1.03 1.41-3.23 1.78-1.69 0.03 0.1 0.04 0.2 0.05 0.29C68.09 39.25 68.08 39.43 68.05 39.59z" fill="#000000" data-fill-palette-color="accent"></path><g fill="#ffffff" data-fill-palette-color="accent"><path d="M65.01 24.75c0 0.02-0.01 0.05-0.02 0.07-0.42 1.13-8.37 3.96-16.7 4.04h-0.12c-4.84 0.03-9.79-0.89-13.46-3.61-0.22-0.15-0.44-0.32-0.65-0.5 0 0-0.43-1.18 0.62-4.22 0 0 0.21 0.13 0.62 0.34 1.26 0.64 4.34 2.03 8.64 2.74 0.29 0.05 0.59 0.09 0.89 0.13 3.08 0.43 6.71 0.48 10.71-0.31 2.7-0.53 5.58-1.45 8.55-2.9 0 0 0.04 0.11 0.12 0.29C64.48 21.53 65.12 23.39 65.01 24.75z" fill="#000000" data-fill-palette-color="accent"></path><path d="M63.56 19.61c-0.02 0.01-0.05 0.02-0.07 0.04-1.72 0.92-3.47 1.6-5.2 2.09-0.25 0.07-0.49 0.14-0.74 0.2-0.29 0.07-0.58 0.14-0.87 0.2-5.14 1.12-10.09 0.71-13.95-0.09-0.06-0.01-0.11-0.02-0.17-0.03-3.19-0.66-5.63-1.57-6.81-2.05-0.52-0.22-0.8-0.36-0.8-0.36s0.13-1.14 0.34-2.78c0.01-0.13 0.03-0.27 0.05-0.41 0.01-0.09 0.02-0.19 0.04-0.29 0.41-3.31 1.05-8.08 1.55-9.97 0.79-3.03 3.76-2.64 3.76-2.64 9.43 4.35 16.81 0.66 19.33 0.53 1.45-0.07 2.4 5.08 2.95 9.48 0 0.03 0.01 0.06 0.01 0.09C63.38 16.83 63.56 19.61 63.56 19.61z" fill="#000000" data-fill-palette-color="accent"></path><path d="M70.07 30.33c-0.08 0.11-0.16 0.22-0.24 0.32-0.08 0.11-0.16 0.21-0.25 0.31-1.05 1.27-2.53 2.59-4.55 3.95-9.86 6.65-28.9 4.14-35.77-2.72 0 0 0 0 0-0.01-0.11-0.1-0.21-0.2-0.31-0.31-0.17-0.19-0.33-0.37-0.48-0.56-2.54-3.13-2.61-7.04 1.5-11.35 0.91-0.96 2.02-1.93 3.36-2.91 0.33-0.24 0.67-0.48 1.02-0.72 0.17-0.12 0.34-0.24 0.51-0.35 0.03-0.02 0.05-0.04 0.08-0.05 0 0.02-0.02 0.05-0.04 0.09-0.05 0.12-0.15 0.33-0.27 0.62 0 0.01 0 0.01 0 0.01-0.13 0.32-0.3 0.73-0.47 1.21-0.02 0.05-0.04 0.11-0.06 0.17-0.45 1.29-0.93 2.99-1.01 4.57-0.02 0.31-0.02 0.62 0 0.91v0.13c0.05 0.67 0.21 1.29 0.5 1.81 0.3 0.54 0.74 0.99 1.36 1.28 2.49 1.17 6.28 3.02 12.65 3.11 0.03 0.01 0.05 0.01 0.08 0 0.16 0.01 0.33 0.02 0.49 0.02h0.12c0.1 0 0.19 0 0.29-0.01 0.27 0 0.54-0.01 0.81-0.02 0.16 0 0.33-0.01 0.49-0.02 0.25-0.01 0.51-0.02 0.77-0.04 0.33-0.02 0.67-0.05 1.02-0.08 0.9-0.07 1.84-0.19 2.82-0.35 0.36-0.05 0.72-0.11 1.09-0.18 2.79-0.48 5.93-1.26 9.45-2.43 0 0 0.67-0.23 0.97-1.51 0.04-0.21 0.08-0.45 0.1-0.73 0.14-1.5-0.2-3.99-1.81-8.08-0.06-0.16-0.12-0.32-0.19-0.48 0.02 0.01 0.07 0.03 0.15 0.07 0.16 0.08 0.43 0.23 0.78 0.45 0.17 0.1 0.36 0.22 0.57 0.35 0.25 0.16 0.52 0.34 0.8 0.54 0.28 0.2 0.57 0.41 0.87 0.64v0.01C70.37 20.43 74.08 24.88 70.07 30.33z" fill="#000000" data-fill-palette-color="accent"></path><path d="M48.58 29.85c-0.1 0.01-0.19 0.01-0.29 0.01h-0.12c-0.16 0-0.33-0.01-0.49-0.02C47.98 29.85 48.28 29.85 48.58 29.85z" fill="#000000" data-fill-palette-color="accent"></path></g><path d="M28.74 33.34" fill="#000000" data-fill-palette-color="accent"></path><g fill="#ffffff" data-fill-palette-color="accent"><path d="M48 86.53c-0.06 0.1-0.12 0.21-0.18 0.32-2.71 4.74-8.97 13.8-14.11 6.61-6.75-9.45 0-16.2 0-16.2 1.48-2.32 9.08 2.53 13.03 5.29v0.01c0.08 0.05 0.16 0.11 0.24 0.16-0.28 0.42-0.44 0.92-0.44 1.46 0 0.06 0 0.12 0.01 0.17 0.05 0.89 0.54 1.65 1.26 2.07C47.87 86.46 47.93 86.5 48 86.53z" fill="#000000" data-fill-palette-color="accent"></path><path d="M51.36 84.18v0.05c-0.02 0.85-0.51 1.59-1.24 1.94-0.29 0.15-0.62 0.23-0.96 0.23-0.35 0-0.67-0.08-0.97-0.23-0.73-0.36-1.24-1.12-1.24-1.99v-0.01c0-0.44 0.14-0.85 0.38-1.2 0.39-0.6 1.06-0.99 1.83-0.99 0.76 0 1.43 0.39 1.83 0.99C51.23 83.32 51.36 83.74 51.36 84.18z" fill="#000000" data-fill-palette-color="accent"></path><path d="M64.59 93.46c-5.16 7.23-11.46-1.96-14.13-6.68-0.05-0.09-0.09-0.17-0.14-0.25 0.07-0.03 0.14-0.07 0.2-0.11 0.71-0.43 1.19-1.19 1.24-2.07 0.01-0.05 0.01-0.11 0.01-0.17 0-0.53-0.16-1.03-0.45-1.45 0.08-0.06 0.17-0.12 0.25-0.17 3.95-2.77 11.53-7.62 13.02-5.3C64.59 77.26 71.34 84.01 64.59 93.46z" fill="#000000" data-fill-palette-color="accent"></path></g></svg></g></svg></g></svg></g></svg></g></svg></g></svg></g><defs></defs></svg><rect width="395.52" height="50.686476396219305" fill="none" stroke="none" visibility="hidden"></rect></g></svg></g></svg>